<svg version="1.1" viewBox="0.0 0.0 32.0 32.0" fill="none" stroke="none" stroke-linecap="square" stroke-miterlimit="10" xmlns:xlink="http://www.w3.org/1999/xlink" xmlns="http://www.w3.org/2000/svg"><clipPath id="p.0"><path d="m0 0l32.0 0l0 32.0l-32.0 0l0 -32.0z" clip-rule="nonzero"/></clipPath><g clip-path="url(#p.0)"><path fill="#000000" fill-opacity="0.0" d="m0 0l32.0 0l0 32.0l-32.0 0z" fill-rule="evenodd"/><path fill="#000000" fill-opacity="0.0" d="m0.6732097 8.553547l0 0c0 -1.7508969 1.4193826 -3.1702795 3.1702797 -3.1702795l19.787184 0c0.84080887 0 1.6471825 0.3340106 2.241726 0.9285531c0.59454155 0.594543 0.9285526 1.4009161 0.9285526 2.2417264l0 12.680738c0 1.7508965 -1.4193821 3.1702785 -3.1702785 3.1702785l-19.787184 0c-1.7508972 0 -3.1702797 -1.4193821 -3.1702797 -3.1702785z" fill-rule="evenodd"/><path stroke="#dddddd" stroke-width="1.0" stroke-linejoin="round" stroke-linecap="butt" d="m0.6732097 8.553547l0 0c0 -1.7508969 1.4193826 -3.1702795 3.1702797 -3.1702795l19.787184 0c0.84080887 0 1.6471825 0.3340106 2.241726 0.9285531c0.59454155 0.594543 0.9285526 1.4009161 0.9285526 2.2417264l0 12.680738c0 1.7508965 -1.4193821 3.1702785 -3.1702785 3.1702785l-19.787184 0c-1.7508972 0 -3.1702797 -1.4193821 -3.1702797 -3.1702785z" fill-rule="evenodd"/><path fill="#dddddd" d="m2.1621795 9.331192l0 0c0 -1.0148582 0.8227048 -1.837563 1.8375626 -1.837563l7.3500304 0l0 0c0.48735237 0 0.9547434 0.19360018 1.2993536 0.53820944c0.34460926 0.3446102 0.53820896 0.8120012 0.53820896 1.2993536l0 11.107294c0 1.0148563 -0.8227043 1.8375626 -1.8375626 1.8375626l-7.3500304 0c-1.0148578 0 -1.8375626 -0.8227062 -1.8375626 -1.8375626z" fill-rule="evenodd"/><path fill="#dddddd" d="m14.286232 9.330703l0 0c0 -1.0148573 0.8227043 -1.8375621 1.8375626 -1.8375621l7.350031 0l0 0c0.48735046 0 0.95474243 0.1935997 1.2993526 0.53820944c0.3446102 0.3446102 0.5382099 0.8120012 0.5382099 1.2993526l0 11.107293c0 1.0148582 -0.8227062 1.8375626 -1.8375626 1.8375626l-7.350031 0c-1.0148582 0 -1.8375626 -0.8227043 -1.8375626 -1.8375626z" fill-rule="evenodd"/><path fill="#000000" fill-opacity="0.0" d="m3.3595667 9.515102l8.637713 0" fill-rule="evenodd"/><path stroke="#646464" stroke-width="1.0" stroke-linejoin="round" stroke-linecap="butt" d="m3.3595667 9.515102l8.637713 0" fill-rule="evenodd"/><path fill="#000000" fill-opacity="0.0" d="m3.3595667 12.439764l8.637713 0" fill-rule="evenodd"/><path stroke="#646464" stroke-width="1.0" stroke-linejoin="round" stroke-linecap="butt" d="m3.3595667 12.439764l8.637713 0" fill-rule="evenodd"/><path fill="#000000" fill-opacity="0.0" d="m15.483549 12.439764l8.6377125 0" fill-rule="evenodd"/><path stroke="#646464" stroke-width="1.0" stroke-linejoin="round" stroke-linecap="butt" d="m15.483549 12.439764l8.6377125 0" fill-rule="evenodd"/><path fill="#000000" fill-opacity="0.0" d="m15.483549 9.515102l8.6377125 0" fill-rule="evenodd"/><path stroke="#646464" stroke-width="1.0" stroke-linejoin="round" stroke-linecap="butt" d="m15.483549 9.515102l8.6377125 0" fill-rule="evenodd"/><path fill="#000000" fill-opacity="0.0" d="m3.3595667 15.450193l8.637713 0" fill-rule="evenodd"/><path stroke="#646464" stroke-width="1.0" stroke-linejoin="round" stroke-linecap="butt" d="m3.3595667 15.450193l8.637713 0" fill-rule="evenodd"/><path fill="#ffffff" d="m5.198144 10.766146l0 0c0 -1.7508974 1.4193826 -3.17028 3.1702795 -3.17028l19.787182 0c0.8408108 0 1.6471844 0.3340106 2.2417278 0.9285531c0.59454155 0.5945425 0.9285526 1.4009161 0.9285526 2.2417269l0 12.680738c0 1.7508965 -1.4193821 3.1702785 -3.1702805 3.1702785l-19.787182 0c-1.7508969 0 -3.1702795 -1.4193821 -3.1702795 -3.1702785z" fill-rule="evenodd"/><path stroke="#dddddd" stroke-width="1.0" stroke-linejoin="round" stroke-linecap="butt" d="m5.198144 10.766146l0 0c0 -1.7508974 1.4193826 -3.17028 3.1702795 -3.17028l19.787182 0c0.8408108 0 1.6471844 0.3340106 2.2417278 0.9285531c0.59454155 0.5945425 0.9285526 1.4009161 0.9285526 2.2417269l0 12.680738c0 1.7508965 -1.4193821 3.1702785 -3.1702805 3.1702785l-19.787182 0c-1.7508969 0 -3.1702795 -1.4193821 -3.1702795 -3.1702785z" fill-rule="evenodd"/><path fill="#dddddd" d="m6.687114 11.543791l0 0c0 -1.0148582 0.8227048 -1.8375635 1.8375626 -1.8375635l7.350031 0l0 0c0.48735142 0 0.9547434 0.1935997 1.2993536 0.5382099c0.3446083 0.3446102 0.538208 0.8120012 0.538208 1.2993536l0 11.107292c0 1.0148582 -0.8227043 1.8375645 -1.8375616 1.8375645l-7.350031 0c-1.0148578 0 -1.8375626 -0.8227062 -1.8375626 -1.8375645z" fill-rule="evenodd"/><path fill="#dddddd" d="m18.811167 11.543302l0 0c0 -1.0148582 0.8227043 -1.8375626 1.8375626 -1.8375626l7.350029 0l0 0c0.48735237 0 0.95474434 0.1935997 1.2993546 0.5382099c0.3446102 0.34460926 0.5382099 0.8120012 0.5382099 1.2993526l0 11.107293c0 1.0148582 -0.8227062 1.8375626 -1.8375645 1.8375626l-7.350029 0c-1.0148582 0 -1.8375626 -0.8227043 -1.8375626 -1.8375626z" fill-rule="evenodd"/><path fill="#000000" fill-opacity="0.0" d="m7.884501 11.727701l8.637714 0" fill-rule="evenodd"/><path stroke="#646464" stroke-width="1.0" stroke-linejoin="round" stroke-linecap="butt" d="m7.884501 11.727701l8.637714 0" fill-rule="evenodd"/><path fill="#000000" fill-opacity="0.0" d="m7.884501 14.652363l8.637714 0" fill-rule="evenodd"/><path stroke="#646464" stroke-width="1.0" stroke-linejoin="round" stroke-linecap="butt" d="m7.884501 14.652363l8.637714 0" fill-rule="evenodd"/><path fill="#000000" fill-opacity="0.0" d="m20.008484 14.652363l8.6377125 0" fill-rule="evenodd"/><path stroke="#646464" stroke-width="1.0" stroke-linejoin="round" stroke-linecap="butt" d="m20.008484 14.652363l8.6377125 0" fill-rule="evenodd"/><path fill="#000000" fill-opacity="0.0" d="m20.008484 11.727701l8.6377125 0" fill-rule="evenodd"/><path stroke="#646464" stroke-width="1.0" stroke-linejoin="round" stroke-linecap="butt" d="m20.008484 11.727701l8.6377125 0" fill-rule="evenodd"/><path fill="#000000" fill-opacity="0.0" d="m7.884501 17.662792l8.637714 0" fill-rule="evenodd"/><path stroke="#646464" stroke-width="1.0" stroke-linejoin="round" stroke-linecap="butt" d="m7.884501 17.662792l8.637714 0" fill-rule="evenodd"/></g></svg>