<svg version="1.1" viewBox="0.0 0.0 256.0 256.0" fill="none" stroke="none" stroke-linecap="square" stroke-miterlimit="10" xmlns:xlink="http://www.w3.org/1999/xlink" xmlns="http://www.w3.org/2000/svg"><clipPath id="p.0"><path d="m0 0l256.0 0l0 256.0l-256.0 0l0 -256.0z" clip-rule="nonzero"/></clipPath><g clip-path="url(#p.0)"><path fill="#000000" fill-opacity="0.0" d="m0 0l256.0 0l0 256.0l-256.0 0z" fill-rule="evenodd"/><path fill="#f2f2f2" d="m0 0l256.0 0l0 256.0l-256.0 0z" fill-rule="evenodd"/><path fill="#24292e" d="m16.629921 110.603l0 0c0 -31.324753 25.39373 -56.718483 56.718483 -56.718483l109.30319 0l0 0c15.042679 0 29.469238 5.9756813 40.106018 16.612457c10.63678 10.63678 16.612457 25.063347 16.612457 40.106026l0 35.633896c0 31.324753 -25.393723 56.71849 -56.718475 56.71849l-109.30319 0l0 0c-31.324753 0 -56.718483 -25.393738 -56.718483 -56.71849z" fill-rule="evenodd"/><path fill="#424548" d="m28.210121 115.455376l0 0c0 -26.248749 21.278812 -47.527557 47.527557 -47.527557l0 0l0 0c12.605095 0 24.693916 5.0073547 33.607063 13.920502c8.913139 8.913139 13.920494 21.00196 13.920494 33.607056l0 25.921257c0 26.248749 -21.278809 47.527557 -47.527557 47.527557l0 0l0 0c-26.248745 0 -47.527557 -21.278809 -47.527557 -47.527557z" fill-rule="evenodd"/><path fill="#424548" d="m132.72978 115.46318l0 0c0 -26.248749 21.278824 -47.527565 47.527557 -47.527565l0 0l0 0c12.605103 0 24.693924 5.0073547 33.60707 13.920502c8.913147 8.913147 13.920486 21.001968 13.920486 33.607063l0 25.921265c0 26.248734 -21.278809 47.527557 -47.527557 47.527557l0 0l0 0c-26.248734 0 -47.527557 -21.278824 -47.527557 -47.527557z" fill-rule="evenodd"/><path fill="#000000" fill-opacity="0.0" d="m38.09449 88.50131l179.81104 0l0 79.842514l-179.81104 0z" fill-rule="evenodd"/><path fill="#f2f2f2" d="m65.84375 162.98257l0 -68.71876l13.875 0l0 30.515625l28.03125 -30.515625l18.65625 0l-25.875 26.765625l27.28125 41.953133l-17.953125 0l-18.890625 -32.25l-11.25 11.484375l0 20.765625l-13.875 0zm69.1875 -68.71876l27.46875 0q8.15625 0 12.15625 0.6875q4.015625 0.671875 7.171875 2.828125q3.171875 2.15625 5.28125 5.75q2.109375 3.578125 2.109375 8.03125q0 4.828125 -2.609375 8.859375q-2.59375 4.03125 -7.046875 6.046875q6.28125 1.8281326 9.65625 6.2343826q3.375 4.40625 3.375 10.359375q0 4.6875 -2.1875 9.125q-2.171875 4.421875 -5.953125 7.078125q-3.765625 2.640625 -9.296875 3.25q-3.46875 0.375 -16.734375 0.46875l-23.390625 0l0 -68.71876zm13.875 11.4375l0 15.890625l9.09375 0q8.109375 0 10.078125 -0.234375q3.5625 -0.421875 5.59375 -2.453125q2.046875 -2.046875 2.046875 -5.375q0 -3.1875 -1.765625 -5.171875q-1.75 -2.0 -5.21875 -2.421875q-2.0625 -0.234375 -11.859375 -0.234375l-7.96875 0zm0 27.328133l0 18.375l12.84375 0q7.5 0 9.515625 -0.421875q3.09375 -0.5625 5.03125 -2.734375q1.953125 -2.1875 1.953125 -5.84375q0 -3.09375 -1.5 -5.25q-1.5 -2.15625 -4.34375 -3.140625q-2.828125 -0.984375 -12.296875 -0.984375l-11.203125 0z" fill-rule="nonzero"/></g></svg>