<svg version="1.1" viewBox="0.0 0.0 32.0 32.0" fill="none" stroke="none" stroke-linecap="square" stroke-miterlimit="10" xmlns:xlink="http://www.w3.org/1999/xlink" xmlns="http://www.w3.org/2000/svg"><clipPath id="p.0"><path d="m0 0l32.0 0l0 32.0l-32.0 0l0 -32.0z" clip-rule="nonzero"/></clipPath><g clip-path="url(#p.0)"><path fill="#000000" fill-opacity="0.0" d="m0 0l32.0 0l0 32.0l-32.0 0z" fill-rule="evenodd"/><path fill="#dddddd" d="m12.07874 6.2703414l1.2125988 -4.850394l5.417323 0l1.2125969 4.850394z" fill-rule="evenodd"/><path fill="#dddddd" d="m12.07874 25.790026l1.2125988 4.8503933l5.417323 0l1.2125969 -4.8503933z" fill-rule="evenodd"/><path fill="#dddddd" d="m5.4488187 16.0l0 0c0 -5.827256 4.723925 -10.551182 10.551182 -10.551182l0 0c2.7983475 0 5.4820824 1.1116395 7.4608116 3.0903697c1.9787312 1.9787302 3.0903702 4.662464 3.0903702 7.4608116l0 0c0 5.827257 -4.7239246 10.551182 -10.551182 10.551182l0 0c-5.827256 0 -10.551182 -4.7239246 -10.551182 -10.551182zm5.6558557 0c0 2.7036133 2.1917114 4.8953266 4.8953257 4.8953266c2.7036133 0 4.8953266 -2.1917133 4.8953266 -4.8953266l0 0c0 -2.7036142 -2.1917133 -4.8953257 -4.8953266 -4.8953257l0 0c-2.7036142 0 -4.8953257 2.1917114 -4.8953257 4.8953257z" fill-rule="evenodd"/><path fill="#dddddd" d="m22.492346 7.755568l4.8072243 -1.3749652l2.708662 4.691943l-3.5946274 3.4754286z" fill-rule="evenodd"/><path fill="#dddddd" d="m5.5863457 17.515411l-3.594627 3.4754276l2.7086616 4.691942l4.807225 -1.3749638z" fill-rule="evenodd"/><path fill="#dddddd" d="m5.5872455 14.511019l-3.592565 -3.4774895l2.71137 -4.690318l4.806376 1.3777542z" fill-rule="evenodd"/><path fill="#dddddd" d="m22.487389 24.28062l4.8063774 1.3777561l2.7113686 -4.690319l-3.5925636 -3.4774895z" fill-rule="evenodd"/></g></svg>