<svg version="1.1" viewBox="0.0 0.0 32.0 32.0" fill="none" stroke="none" stroke-linecap="square" stroke-miterlimit="10" xmlns:xlink="http://www.w3.org/1999/xlink" xmlns="http://www.w3.org/2000/svg"><clipPath id="p.0"><path d="m0 0l32.0 0l0 32.0l-32.0 0l0 -32.0z" clip-rule="nonzero"/></clipPath><g clip-path="url(#p.0)"><path fill="#000000" fill-opacity="0.0" d="m0 0l32.0 0l0 32.0l-32.0 0z" fill-rule="evenodd"/><path fill="#000000" fill-opacity="0.0" d="m0.6614173 8.556505l0 0c0 -2.0555263 1.6663332 -3.7218595 3.7218592 -3.7218595l23.233448 0c0.9870987 0 1.9337673 0.39212322 2.631752 1.0901074c0.6979828 0.69798374 1.090107 1.6446533 1.090107 2.631752l0 14.88699c0 2.0555267 -1.6663342 3.721859 -3.721859 3.721859l-23.233448 0c-2.055526 0 -3.7218592 -1.6663322 -3.7218592 -3.721859z" fill-rule="evenodd"/><path stroke="#dddddd" stroke-width="1.0" stroke-linejoin="round" stroke-linecap="butt" d="m0.6614173 8.556505l0 0c0 -2.0555263 1.6663332 -3.7218595 3.7218592 -3.7218595l23.233448 0c0.9870987 0 1.9337673 0.39212322 2.631752 1.0901074c0.6979828 0.69798374 1.090107 1.6446533 1.090107 2.631752l0 14.88699c0 2.0555267 -1.6663342 3.721859 -3.721859 3.721859l-23.233448 0c-2.055526 0 -3.7218592 -1.6663322 -3.7218592 -3.721859z" fill-rule="evenodd"/><path fill="#dddddd" d="m2.4096498 9.469702l0 0c0 -1.1915674 0.9659562 -2.1575236 2.1575236 -2.1575236l8.629835 0l0 0c0.57221127 0 1.120985 0.2273097 1.5255995 0.6319237c0.40461445 0.40461397 0.6319237 0.9533887 0.6319237 1.5256l0 13.039284c0 1.1915665 -0.96595573 2.1575222 -2.1575232 2.1575222l-8.629835 0c-1.1915674 0 -2.1575236 -0.96595573 -2.1575236 -2.1575222z" fill-rule="evenodd"/><path fill="#dddddd" d="m16.64477 9.469128l0 0c0 -1.1915674 0.96595764 -2.1575236 2.157524 -2.1575236l8.629835 0l0 0c0.5722103 0 1.120985 0.22731018 1.5256004 0.63192415c0.4046135 0.40461445 0.6319237 0.9533882 0.6319237 1.5255995l0 13.039284c0 1.1915665 -0.96595573 2.157524 -2.157524 2.157524l-8.629835 0c-1.1915665 0 -2.157524 -0.96595764 -2.157524 -2.157524z" fill-rule="evenodd"/><path fill="#000000" fill-opacity="0.0" d="m3.815529 9.685356l10.141732 0" fill-rule="evenodd"/><path stroke="#646464" stroke-width="1.0" stroke-linejoin="round" stroke-linecap="butt" d="m3.815529 9.685356l10.141732 0" fill-rule="evenodd"/><path fill="#000000" fill-opacity="0.0" d="m3.815529 13.118864l10.141732 0" fill-rule="evenodd"/><path stroke="#646464" stroke-width="1.0" stroke-linejoin="round" stroke-linecap="butt" d="m3.815529 13.118864l10.141732 0" fill-rule="evenodd"/><path fill="#000000" fill-opacity="0.0" d="m18.050568 13.118864l10.141731 0" fill-rule="evenodd"/><path stroke="#646464" stroke-width="1.0" stroke-linejoin="round" stroke-linecap="butt" d="m18.050568 13.118864l10.141731 0" fill-rule="evenodd"/><path fill="#000000" fill-opacity="0.0" d="m18.050568 9.685356l10.141731 0" fill-rule="evenodd"/><path stroke="#646464" stroke-width="1.0" stroke-linejoin="round" stroke-linecap="butt" d="m18.050568 9.685356l10.141731 0" fill-rule="evenodd"/><path fill="#000000" fill-opacity="0.0" d="m3.815529 16.65306l10.141732 0" fill-rule="evenodd"/><path stroke="#646464" stroke-width="1.0" stroke-linejoin="round" stroke-linecap="butt" d="m3.815529 16.65306l10.141732 0" fill-rule="evenodd"/></g></svg>