<svg version="1.1" viewBox="0.0 0.0 256.0 256.0" fill="none" stroke="none" stroke-linecap="square" stroke-miterlimit="10" xmlns:xlink="http://www.w3.org/1999/xlink" xmlns="http://www.w3.org/2000/svg"><clipPath id="p.0"><path d="m0 0l256.0 0l0 256.0l-256.0 0l0 -256.0z" clip-rule="nonzero"/></clipPath><g clip-path="url(#p.0)"><path fill="#000000" fill-opacity="0.0" d="m0 0l256.0 0l0 256.0l-256.0 0z" fill-rule="evenodd"/><path fill="#f2f2f2" d="m0 128.0l0 0c0 -70.692444 57.307552 -128.0 128.0 -128.0l0 0c33.94771 0 66.505005 13.485676 90.509674 37.490334c24.004654 24.004654 37.490326 56.56196 37.490326 90.50967l0 0c0 70.692444 -57.307556 128.0 -128.0 128.0l0 0c-70.692444 0 -128.0 -57.307556 -128.0 -128.0z" fill-rule="evenodd"/><path fill="#24292e" d="m24.15748 111.80384l0 0c0 -29.213486 23.682215 -52.895702 52.895706 -52.895702l101.89362 0l0 0c14.028824 0 27.483047 5.5729256 37.402924 15.492794c9.919861 9.919868 15.492783 23.3741 15.492783 37.40291l0 33.232216c0 29.213486 -23.682205 52.895706 -52.895706 52.895706l-101.89362 0l0 0c-29.21349 0 -52.895706 -23.68222 -52.895706 -52.895706z" fill-rule="evenodd"/><path fill="#000000" fill-opacity="0.0" d="m36.582676 67.96326l182.83466 0l0 120.91339l-182.83466 0z" fill-rule="evenodd"/><path fill="#f2f2f2" d="m65.84375 162.97995l0 -68.71875l13.875 0l0 30.515625l28.03125 -30.515625l18.65625 0l-25.875 26.765625l27.28125 41.953125l-17.953125 0l-18.890625 -32.25l-11.25 11.484375l0 20.765625l-13.875 0zm69.1875 -68.71875l27.46875 0q8.15625 0 12.15625 0.6875q4.015625 0.671875 7.171875 2.828125q3.171875 2.15625 5.28125 5.75q2.109375 3.578125 2.109375 8.03125q0 4.828125 -2.609375 8.859375q-2.59375 4.03125 -7.046875 6.046875q6.28125 1.828125 9.65625 6.234375q3.375 4.40625 3.375 10.359375q0 4.6875 -2.1875 9.125q-2.171875 4.421875 -5.953125 7.078125q-3.765625 2.640625 -9.296875 3.25q-3.46875 0.375 -16.734375 0.46875l-23.390625 0l0 -68.71875zm13.875 11.4375l0 15.890625l9.09375 0q8.109375 0 10.078125 -0.234375q3.5625 -0.421875 5.59375 -2.453125q2.046875 -2.046875 2.046875 -5.375q0 -3.1875 -1.765625 -5.171875q-1.75 -2.0 -5.21875 -2.421875q-2.0625 -0.234375 -11.859375 -0.234375l-7.96875 0zm0 27.328125l0 18.375l12.84375 0q7.5 0 9.515625 -0.421875q3.09375 -0.5625 5.03125 -2.734375q1.953125 -2.1875 1.953125 -5.84375q0 -3.09375 -1.5 -5.25q-1.5 -2.15625 -4.34375 -3.140625q-2.828125 -0.984375 -12.296875 -0.984375l-11.203125 0z" fill-rule="nonzero"/></g></svg>