<svg version="1.1" viewBox="0.0 0.0 32.0 32.0" fill="none" stroke="none" stroke-linecap="square" stroke-miterlimit="10" xmlns:xlink="http://www.w3.org/1999/xlink" xmlns="http://www.w3.org/2000/svg"><clipPath id="p.0"><path d="m0 0l32.0 0l0 32.0l-32.0 0l0 -32.0z" clip-rule="nonzero"/></clipPath><g clip-path="url(#p.0)"><path fill="#000000" fill-opacity="0.0" d="m0 0l32.0 0l0 32.0l-32.0 0z" fill-rule="evenodd"/><path fill="#656565" d="m0 16.0l0 0c0 -2.4004822 1.945975 -4.3464565 4.3464565 -4.3464565l0 0c1.1527519 0 2.2582903 0.45792866 3.073409 1.2730474c0.8151188 0.8151188 1.2730474 1.9206572 1.2730474 3.073409l0 0c0 2.4004822 -1.9459748 4.3464565 -4.3464565 4.3464565l0 0c-2.4004817 0 -4.3464565 -1.9459743 -4.3464565 -4.3464565z" fill-rule="evenodd"/><path fill="#656565" d="m11.905512 16.0l0 0c0 -2.4004822 1.9459753 -4.3464565 4.3464565 -4.3464565l0 0c1.1527519 0 2.2582912 0.45792866 3.07341 1.2730474c0.8151169 0.8151188 1.2730465 1.9206572 1.2730465 3.073409l0 0c0 2.4004822 -1.9459743 4.3464565 -4.3464565 4.3464565l0 0c-2.4004812 0 -4.3464565 -1.9459743 -4.3464565 -4.3464565z" fill-rule="evenodd"/><path fill="#656565" d="m23.307087 16.0l0 0c0 -2.4004822 1.9459743 -4.3464565 4.3464565 -4.3464565l0 0c1.1527519 0 2.2582893 0.45792866 3.0734081 1.2730474c0.8151188 0.8151188 1.2730484 1.9206572 1.2730484 3.073409l0 0c0 2.4004822 -1.9459743 4.3464565 -4.3464565 4.3464565l0 0c-2.4004822 0 -4.3464565 -1.9459743 -4.3464565 -4.3464565z" fill-rule="evenodd"/></g></svg>